<?xml version="1.0" encoding="UTF-8"?>
<svg id="Calque_1" data-name="Calque 1" xmlns="http://www.w3.org/2000/svg" viewBox="0 0 403.18 495.97">
  <defs>
    <style>
      .cls-1 {
        fill: #fff;
      }
    </style>
  </defs>
  <path class="cls-1" d="M289.55,441.23c-.06,.02,.06-.02,0,0,0-28.87,0-57.24,0-85.61,0-11.31-1.53-22.36-5.53-33.01-2.98-7.93-7.25-15.03-14.08-21.4,9.83-1.74,19.06-3.15,28.18-5.03,13.82-2.84,27.16-7.2,39.81-13.55,24.26-12.18,42.39-30.38,52.32-55.7,13.85-35.29,17.31-71.54,6.72-108.42-3.98-13.87-11.03-26.27-20.39-37.25-2.11-2.48-2.47-4.37-1.42-7.55,7.85-23.94,4.39-47.28-4.19-70.31-1.06-2.83-3.03-3.02-5.38-3.07-10.65-.21-20.7,2.62-30.56,6.24-14.51,5.33-28.07,12.61-41.08,20.9-2.88,1.83-5.37,2.44-8.92,1.51-40.13-10.49-80.72-10.65-121.1-2.7-14.22,2.8-25.75,2.16-38.17-6.14C110.78,10.11,93.8,3.5,75.62,.8c-2.97-.44-5.25-.75-7.06-.8l-5.57,1.98c-1.39,1.65-2.37,4.49-3.8,9.08-6.64,21.26-7.06,42.68-1.19,64.14,.86,3.16,.43,5.22-1.65,7.68-17.72,20.87-25.95,45.23-26.35,72.44-.32,21.64,1.77,42.96,8.61,63.6,13.66,41.21,43.33,64.84,84.11,76.16,12.81,3.56,25.86,5.89,40.14,7.45-3.97,4.34-7.41,8.03-9.9,12.43-3.89,6.88-6.4,14.25-7.28,22.05-.36,3.17-1.67,4.59-4.43,5.71-33.52,13.64-63.17,4.25-82.57-26.21-9.19-14.43-21.7-24.3-38.78-27.7-5.3-1.05-10.63-1.2-15.78,.68-4.52,1.65-5.32,4.5-2.44,8.38,2.06,2.78,4.72,5.01,7.65,6.8,16.82,10.27,27.43,25.68,34.84,43.31,11.38,27.06,32.41,39.67,60.64,41.98,12.78,1.05,25.46-.3,38.23-3.2,0,17.6-.32,37.13-.32,54.45,0,0,.86,54.74,72.86,54.74s73.97-54.74,73.97-54.74Z"/>
</svg>