<?xml version="1.0" encoding="UTF-8"?>
<svg id="Calque_1" data-name="Calque 1" xmlns="http://www.w3.org/2000/svg" viewBox="0 0 462.74 461.48">
  <defs>
    <style>
      .cls-1 {
        fill: #fff;
      }
    </style>
  </defs>
  <path class="cls-1" d="M255.54,194.87c6.41-7.2,11.7-14.52,18.28-20.73,20.25-19.08,44.2-28.71,72.16-28.47,15.37,.13,30.56,1.24,45.37,5.52,33.89,9.8,53.58,33.13,62.97,66.23,7.04,24.83,8.34,50.31,8.39,75.89,.09,53.93-.16,107.87-.04,161.8,.01,5.05-1.4,6.37-6.37,6.33-27.78-.23-55.57-.24-83.36,0-4.89,.04-5.94-1.47-5.93-6.09,.15-51.32,.19-102.64,.03-153.96-.04-12.86-.86-25.71-4.47-38.22-6.65-23.03-23.13-34.77-47.27-33.49-32.95,1.74-50.08,18.05-54.29,51.56-1,8-1.48,16.01-1.47,24.07,.04,49.91-.05,99.82,.13,149.73,.02,4.98-1.23,6.44-6.31,6.4-27.99-.25-55.98-.22-83.96-.02-4.49,.03-5.78-1.18-5.78-5.72,.12-98.82,.13-197.63,0-296.45,0-4.89,1.6-6.02,6.22-5.99,26.58,.2,53.16,.22,79.73-.02,4.89-.04,6.15,1.54,6.05,6.17-.27,11.81-.09,23.62-.09,35.44Z"/>
  <path class="cls-1" d="M103.3,307.8c0,48.89-.08,97.77,.12,146.66,.02,5.43-1.33,7.08-6.95,7.01-27.77-.31-55.55-.24-83.32-.04-4.45,.03-5.79-1.08-5.79-5.68,.13-98.98,.12-197.96,.02-296.94,0-4.1,.99-5.56,5.34-5.53,28.18,.18,56.36,.24,84.53-.03,5.41-.05,6.15,2.05,6.14,6.69-.14,49.29-.08,98.58-.08,147.86Z"/>
  <path class="cls-1" d="M110.96,55.2c.03,30.69-24.88,55.7-55.5,55.71C25.23,110.92,.1,85.89,0,55.68-.1,25.12,25.01-.03,55.57,0c30.35,.03,55.36,24.95,55.39,55.2Z"/>
</svg>