<?xml version="1.0" encoding="UTF-8"?>
<svg id="Calque_1" data-name="Calque 1" xmlns="http://www.w3.org/2000/svg" viewBox="0 0 491.52 386.13">
  <defs>
    <style>
      .cls-1 {
        fill: #fff;
      }
    </style>
  </defs>
  <path class="cls-1" d="M420.56,0H70.96C31.83,0,0,31.83,0,70.96v244.2c0,39.13,31.83,70.96,70.96,70.96H420.56c39.13,0,70.96-31.83,70.96-70.96V70.96C491.52,31.83,459.69,0,420.56,0Zm0,33.92c2.9,0,5.72,.37,8.43,1l-147.49,167.35c-9.04,10.26-22.07,16.14-35.74,16.14s-26.7-5.88-35.74-16.14L62.54,34.92c2.71-.63,5.52-1,8.42-1H420.56Zm37.04,281.24c0,20.42-16.61,37.04-37.04,37.04H70.96c-20.42,0-37.04-16.62-37.04-37.04V70.96c0-4.97,1-9.71,2.78-14.04L184.58,224.71c15.48,17.56,37.78,27.63,61.18,27.63s45.7-10.07,61.18-27.63L454.82,56.93c1.78,4.33,2.78,9.06,2.78,14.03v244.2Z"/>
</svg>