<?xml version="1.0" encoding="UTF-8"?>
<svg id="Calque_1" data-name="Calque 1" xmlns="http://www.w3.org/2000/svg" viewBox="0 0 465.04 446.72">
  <defs>
    <style>
      .cls-1 {
        fill: #fff;
      }
    </style>
  </defs>
  <path class="cls-1" d="M29.49,41.72c-2.05,2.26-3.99,4.68-5.76,7.2C7.51,63.28-5.32,94.88,2.22,133.83c32.37,168.6,174.4,297.06,345.39,312.4,3.68,.33,7.35,.5,10.97,.5,19.65,0,38.18-4.84,52.94-13.91,7.13-4.12,13.48-9.25,18.87-15.23l14.68-16.24c28.64-31.67,26.17-80.73-5.49-109.37l-24.78-22.41c-14.28-12.91-32.72-20.02-51.92-20.02-21.84,0-42.79,9.29-57.45,25.5l-14.67,16.23c-5.74,6.34-10.33,13.47-13.68,21.26-58.53-24.61-106.55-68.57-136.25-124.7,10.76-4.37,20.43-11.13,28.3-19.82l14.67-16.22c13.88-15.34,20.95-35.18,19.91-55.84-1.02-20.65-10.04-39.67-25.39-53.56l-24.77-22.38C139.28,7.11,120.84,0,101.62,0c-21.87,0-42.81,9.29-57.46,25.48l-14.67,16.24Zm29.44-2.89c10.88-12.03,26.44-18.92,42.69-18.92,14.27,0,27.97,5.28,38.57,14.87l24.77,22.39c11.4,10.32,18.1,24.44,18.86,39.79,.78,15.36-4.48,30.09-14.79,41.49l-14.67,16.21h0c-7.04,7.8-16.05,13.5-26.03,16.5l-4.46,1.34c-2.81,.84-5.1,2.88-6.27,5.57-1.16,2.69-1.09,5.76,.22,8.39l2.08,4.18c32.5,65.27,87.73,115.95,155.51,142.72l3.86,1.52c2.54,1,5.37,.91,7.85-.24,2.47-1.16,4.36-3.28,5.23-5.87l1.31-3.9c2.54-7.54,6.53-14.35,11.87-20.24l14.68-16.23c10.9-12.04,26.46-18.95,42.69-18.95,14.26,0,27.96,5.28,38.57,14.88l24.77,22.41c23.52,21.28,25.35,57.73,4.08,81.26l-14.69,16.24c-4.01,4.45-8.74,8.26-14.3,11.48-14.08,8.64-32.51,12.44-51.93,10.68C187.19,411.85,52.47,290,21.76,130.06c-6.49-33.53,5.71-58.16,15.5-66.53,.32-.27,.62-.57,.9-.88l.68-.75c.29-.32,.56-.66,.81-1.02,1.4-2.03,2.95-3.98,4.6-5.8l14.67-16.24Z"/>
</svg>